<?xml version="1.0" encoding="UTF-8"?>
<svg id="Layer_2" data-name="Layer 2" xmlns="http://www.w3.org/2000/svg" viewBox="0 0 515.62 164.86">
  <defs>
    <style>
      .cls-1 {
        fill: #fff;
      }

      .cls-2 {
        fill: #5285ae;
      }

      .cls-3 {
        fill: #191d49;
      }

      .cls-4 {
        fill: #95c9df;
      }
    </style>
  </defs>
  <g id="Layer_1-2" data-name="Layer 1">
    <g>
      <polygon class="cls-4" points="94.79 72.84 87.22 59.74 53.11 .65 0 .65 47.39 82.73 71.5 124.48 68.24 118.83 94.79 72.84"/>
      <polygon class="cls-3" points="136.46 .66 102.34 59.75 94.79 72.84 121.33 118.82 94.78 164.8 71.5 124.48 94.78 164.81 142.18 82.74 189.57 .66 136.46 .66"/>
      <polygon class="cls-2" points="121.33 118.82 94.79 72.84 68.24 118.83 71.5 124.48 94.78 164.8 121.33 118.82"/>
    </g>
    <g>
      <g>
        <path class="cls-1" d="m218.11,132.92c-.58-.14-1.15-.25-1.71-.31-.56-.06-1.12-.1-1.67-.1-1.58,0-2.94.24-4.08.72-1.14.48-2.01,1.25-2.61,2.29-.6,1.05-.89,2.41-.89,4.08v15.69c0,1.45.24,2.69.72,3.72.48,1.03,1.2,1.82,2.15,2.37s2.12.82,3.5.82c1.16,0,2.24-.16,3.24-.48,1-.32,1.87-.78,2.61-1.38.74-.6,1.32-1.32,1.74-2.17.42-.85.63-1.81.63-2.87v-2.8h-6.23l-.97-2.66h9.75v14.48h-2.46l-.19-2.46c-.58.61-1.3,1.13-2.15,1.57-.85.43-1.78.77-2.78,1.01-1,.24-2.03.36-3.09.36-1.83,0-3.44-.36-4.83-1.09-1.38-.72-2.46-1.8-3.23-3.24-.77-1.43-1.16-3.19-1.16-5.29v-15.21c0-2.06.36-3.83,1.09-5.31.72-1.48,1.79-2.61,3.19-3.4,1.4-.79,3.11-1.18,5.14-1.18.84,0,1.65.06,2.44.17.79.11,1.55.29,2.29.53.74.24,1.45.54,2.12.89l-.82,1.83c-.58-.26-1.16-.46-1.74-.6Z"/>
        <path class="cls-1" d="m292.03,131.09c1.19.37,2.2.97,3.02,1.81.82.84,1.44,1.96,1.86,3.36.42,1.4.63,3.13.63,5.19,0,1.83-.16,3.41-.48,4.73-.32,1.32-.81,2.41-1.47,3.28-.66.87-1.5,1.56-2.53,2.08l4.68,12.79h-2.75l-4.39-12.07c-.26.07-.53.11-.82.15-.29.03-.59.06-.89.07-.31.02-.62.02-.94.02h-8.64v11.83h-2.75v-33.8h11.39c1.54,0,2.91.19,4.1.55Zm-1.28,18.47c.79-.19,1.49-.57,2.1-1.13.61-.56,1.09-1.41,1.42-2.54.34-1.13.51-2.61.51-4.44,0-1.71-.17-3.11-.51-4.2-.34-1.09-.81-1.94-1.4-2.53-.6-.6-1.3-1.01-2.1-1.26-.81-.24-1.67-.36-2.61-.36h-8.88v16.75h8.88c.93,0,1.79-.1,2.58-.29Z"/>
        <path class="cls-1" d="m352.14,132.32c1.83-1.71,4.35-2.56,7.53-2.56s5.66.89,7.44,2.68c1.77,1.79,2.66,4.26,2.66,7.41v15.5c0,1.96-.43,3.65-1.28,5.07-.85,1.42-2.04,2.51-3.57,3.28-1.53.77-3.29,1.16-5.29,1.16s-3.62-.35-5.17-1.06c-1.55-.71-2.78-1.77-3.69-3.19-.92-1.42-1.38-3.17-1.38-5.26v-15.55c0-3.28.92-5.78,2.75-7.48Zm.97,26.85c.64,1.03,1.52,1.81,2.63,2.34,1.11.53,2.37.8,3.79.8s2.78-.25,3.91-.75c1.13-.5,2.01-1.27,2.66-2.32.64-1.05.97-2.36.97-3.93v-15.93c0-1.58-.31-2.88-.92-3.91-.61-1.03-1.48-1.81-2.61-2.34-1.13-.53-2.46-.8-4.01-.8s-2.78.27-3.89.8c-1.11.53-1.97,1.31-2.58,2.34-.61,1.03-.92,2.33-.92,3.91v15.93c0,1.55.32,2.83.97,3.86Z"/>
        <path class="cls-1" d="m441,160.57c-.85,1.42-2.04,2.49-3.55,3.21-1.51.72-3.27,1.09-5.26,1.09s-3.77-.35-5.31-1.06c-1.55-.71-2.75-1.77-3.6-3.19-.85-1.42-1.28-3.17-1.28-5.26v-24.82h2.7v24.77c0,1.55.31,2.83.94,3.86.63,1.03,1.5,1.81,2.61,2.34,1.11.53,2.41.8,3.89.8s2.78-.26,3.89-.77c1.11-.51,1.98-1.3,2.61-2.34.63-1.05.94-2.34.94-3.89v-24.77h2.7v24.82c0,2.06-.43,3.8-1.28,5.21Z"/>
        <path class="cls-1" d="m510.11,131.09c1.19.37,2.2.97,3.02,1.81.82.84,1.44,1.96,1.86,3.36.42,1.4.63,3.13.63,5.19s-.2,3.7-.6,5.12c-.4,1.42-1,2.56-1.79,3.43-.79.87-1.79,1.51-2.99,1.91-1.21.4-2.62.6-4.23.6h-8.64v11.83h-2.75v-33.8h11.39c1.54,0,2.91.19,4.1.55Zm-3.86,18.76c.93,0,1.79-.1,2.58-.29.79-.19,1.49-.57,2.1-1.13.61-.56,1.09-1.41,1.42-2.54.34-1.13.51-2.61.51-4.44,0-1.71-.17-3.11-.51-4.2-.34-1.09-.81-1.94-1.4-2.53-.6-.6-1.3-1.01-2.1-1.26-.81-.24-1.67-.36-2.61-.36h-8.88v16.75h8.88Z"/>
      </g>
      <polygon class="cls-1" points="277.93 .5 277.93 112.22 272.87 112.22 204.39 .5 209.02 .5 273.95 106.35 273.95 .5 277.93 .5"/>
      <polygon class="cls-1" points="398.88 0 398.88 111.72 393.82 111.72 325.34 0 329.98 0 394.9 105.85 394.9 0 398.88 0"/>
      <polygon class="cls-1" points="315.45 112.36 315.45 .65 320.51 .65 388.98 112.36 384.35 112.36 319.43 6.51 319.43 112.36 315.45 112.36"/>
      <path class="cls-1" d="m303.66,111.07h-13.47V.65h13.47v110.42Z"/>
      <path class="cls-1" d="m454.61,16.8c-4.43,0-8.67,1.03-12.71,3.09-4.04,2.06-7.53,4.84-10.45,8.33s-5.26,7.65-7.01,12.48c-1.75,4.83-2.62,9.88-2.62,15.17s.87,10.34,2.62,15.17c1.75,4.83,4.08,8.98,7.01,12.48,2.93,3.49,6.41,6.28,10.45,8.36,4.04,2.09,8.28,3.13,12.71,3.13s9-1.13,13.23-3.38c4.23-2.26,7.9-5.42,11.03-9.49l10,10.84c-4.39,5.77-9.57,10.23-15.54,13.38-5.97,3.15-12.21,4.73-18.71,4.73-8.37,0-16.1-2.47-23.2-7.42-7.09-4.95-12.71-11.65-16.86-20.11-4.15-8.46-6.22-17.69-6.22-27.68s2.07-19.22,6.22-27.68c4.15-8.46,9.76-15.17,16.86-20.11,7.09-4.95,14.82-7.42,23.2-7.42,6.5,0,12.74,1.58,18.71,4.73,5.97,3.15,11.16,7.61,15.54,13.39l-10,10.84c-3.09-4.07-6.76-7.23-11-9.46-4.25-2.23-8.67-3.35-13.26-3.35Z"/>
      <path class="cls-1" d="m515.62,111.07h-13.47V.65h13.47v110.42Z"/>
    </g>
  </g>
</svg>